<?xml version="1.0"?>
<svg xmlns="http://www.w3.org/2000/svg" width="336" height="358" viewBox="0 0 336 358" fill="none">
<path d="M168 357.45C260.784 357.45 336 282.234 336 189.45C336 96.6664 260.784 21.4502 168 21.4502C75.2162 21.4502 0 96.6664 0 189.45C0 282.234 75.2162 357.45 168 357.45Z" fill="#E6EFF9"/>
<mask id="mask0" mask-type="alpha" maskUnits="userSpaceOnUse" x="0" y="0" width="336" height="358">
<path d="M168 357.45C260.784 357.45 336 282.234 336 189.45C336 96.6664 260.784 0 168 0C75.2162 0 0 96.6664 0 189.45C0 282.234 75.2162 357.45 168 357.45Z" fill="#E6EFF9"/>
</mask>
<g mask="url(#mask0)">
<path d="M240.19 112H95.8203V257.42H240.19V112Z" fill="#2F1A12"/>
<path d="M262.48 261.641C241.87 241.941 206.84 232.361 168 232.551C129.26 232.741 94.1299 241.941 73.5199 261.641C56.2999 278.101 55.8799 302.311 55.8799 325.861L168 377.811L280.12 325.871C280.12 302.311 279.7 278.101 262.48 261.641Z" fill="#EAC5D9"/>
<path d="M168 290.19C190.27 277.68 242.23 271.8 263.59 262.8C263.21 262.42 262.88 262.02 262.48 261.64C248.25 248.04 227.12 239.21 202.62 235.03V188.8H133.38V235.03C108.88 239.21 87.7501 248.04 73.5201 261.64C73.1301 262.02 72.7902 262.41 72.4102 262.8C93.7702 271.8 145.73 277.68 168 290.19Z" fill="#DE8C64"/>
<path d="M168 194.66H133.38C133.38 194.66 141.9 223.5 168 223.5C194.1 223.5 202.62 194.66 202.62 194.66H168Z" fill="#CC7856"/>
<path d="M168 17.9307C129.76 17.9307 98.7598 47.7707 98.7598 89.1607L102.42 136.681C102.42 169.011 118.96 186.951 139.7 199.881C146.52 204.141 152.19 211.831 168 211.831C183.81 211.831 189.47 204.141 196.3 199.881C217.03 186.951 233.58 169.011 233.58 136.681L237.24 89.1607C237.24 47.7707 206.24 17.9307 168 17.9307Z" fill="#DE8C64"/>
<path d="M168 165.44C165.47 165.02 159.97 163.85 138.01 165.81C143.01 167.85 145.51 183.6 168 183.6C190.5 183.6 193 167.85 197.99 165.81C176.03 163.85 170.53 165.03 168 165.44Z" fill="#C46A58"/>
<path d="M255.89 256.05C251.31 219.19 253.32 189.99 254.74 164.86C257.96 107.9 250.36 63.3902 229.01 31.2402C213.06 7.21021 193.68 1.65022 184.11 4.51022C171.05 -5.45978 128.18 0.37022 106.97 32.7302C86.2398 64.3602 79.1598 107.52 80.6798 151.84C81.5498 177 83.4898 188.69 82.6998 222.88C82.4398 234.17 82.1198 241.4 80.0898 256.05C80.0898 256.05 94.7498 245.91 105.53 242.36L100.22 79.7702L109.06 48.2302L129.08 29.0802L185.29 20.9302L185.17 19.2702L206.89 29.0802L226.91 48.2302L235.75 79.7702L230.44 242.36C241.23 245.91 255.89 256.05 255.89 256.05Z" fill="#2F1A12"/>
<path d="M126.28 147.77C131.659 147.77 136.02 143.409 136.02 138.03C136.02 132.651 131.659 128.29 126.28 128.29C120.901 128.29 116.54 132.651 116.54 138.03C116.54 143.409 120.901 147.77 126.28 147.77Z" fill="#E7A077"/>
<path d="M209.719 147.77C215.099 147.77 219.46 143.409 219.46 138.03C219.46 132.651 215.099 128.29 209.719 128.29C204.34 128.29 199.979 132.651 199.979 138.03C199.979 143.409 204.34 147.77 209.719 147.77Z" fill="#E7A077"/>
<path d="M242.45 85.6702L224.06 28.3702L168 10.1602L121.23 19.7402L101.7 52.5201L88.2197 94.4902L101.2 244.05C108.3 240.85 121.62 237.46 121.62 237.46C115.07 204.29 109.43 177.23 107.15 147.78C105.49 126.31 106.6 103.33 113.19 82.0502C123.69 48.1402 172.84 45.2802 187.95 35.9002C198.63 34.4002 217.23 39.2602 223.97 68.7402C227.4 83.7702 225 90.1101 227.69 106.26C230.09 120.64 234.93 138.04 228.54 167.39C223.6 190.09 218.95 214.45 214.61 237.41C214.61 237.41 225.98 240.41 234.85 244.14C234.85 244.14 236.66 238.93 237.22 236.3C243.38 207.33 247.77 147.78 247.77 147.78L242.45 85.6702Z" fill="#2F1A12"/>
<path d="M179.029 106.07C178.429 106.15 177.919 105.65 177.979 105.04C178.229 102.49 179.309 98.3104 183.229 97.2704C187.849 96.0404 207.679 93.8504 211.919 96.0704C216.019 98.2104 220.409 103.17 220.689 104.34C220.969 105.51 220.579 106.5 220.239 106.85C220.239 106.85 215.339 102.62 208.719 102.75C202.269 102.87 183.809 105.42 179.029 106.07Z" fill="#2F1A12"/>
<path d="M156.97 106.07C157.57 106.15 158.08 105.65 158.02 105.04C157.77 102.49 156.69 98.3104 152.77 97.2704C148.15 96.0404 128.32 93.8504 124.08 96.0704C119.98 98.2104 115.59 103.17 115.31 104.34C115.03 105.51 115.42 106.5 115.76 106.85C115.76 106.85 120.66 102.62 127.28 102.75C133.73 102.87 152.19 105.42 156.97 106.07Z" fill="#2F1A12"/>
<path d="M137.86 122.97C141.301 122.97 144.09 120.181 144.09 116.74C144.09 113.299 141.301 110.51 137.86 110.51C134.419 110.51 131.63 113.299 131.63 116.74C131.63 120.181 134.419 122.97 137.86 122.97Z" fill="#2F1A12"/>
<path d="M147.02 120.34C147.02 120.34 143.09 115.45 126.59 119.21C126.59 119.21 136.56 128.65 147.02 120.34Z" fill="#DE8C64"/>
<path d="M148.32 113.64C148.32 113.64 144.2 110.14 137.86 110.32C131.52 110.5 129.21 112.55 123.84 112.47C123.84 112.47 127.34 114.1 137.48 113.12C143.11 112.57 148.32 113.64 148.32 113.64Z" fill="#2F1A12"/>
<path d="M198.14 122.97C201.581 122.97 204.37 120.181 204.37 116.74C204.37 113.299 201.581 110.51 198.14 110.51C194.699 110.51 191.91 113.299 191.91 116.74C191.91 120.181 194.699 122.97 198.14 122.97Z" fill="#2F1A12"/>
<path d="M187.68 113.64C187.68 113.64 191.8 110.14 198.14 110.32C204.48 110.5 206.79 112.55 212.16 112.47C212.16 112.47 208.66 114.1 198.52 113.12C192.89 112.57 187.68 113.64 187.68 113.64Z" fill="#2F1A12"/>
<path d="M188.979 120.34C188.979 120.34 192.91 115.45 209.41 119.21C209.41 119.21 199.439 128.65 188.979 120.34Z" fill="#DE8C64"/>
<path d="M179.91 147.94C179.5 144.81 174.3 143.85 173.99 138.72C173.68 133.59 171 113.34 168 113.34C165 113.34 162.32 133.6 162.01 138.73C161.7 143.86 156.5 144.82 156.09 147.95C155.68 151.08 156.5 151.25 159.92 152.82C163.34 154.39 164.89 157.97 168 157.97C171.11 157.97 172.66 154.39 176.08 152.82C179.5 151.25 180.33 151.07 179.91 147.94Z" fill="#CC7856"/>
<path d="M168 168.64C163.75 168.64 156.74 166.16 141.54 166.93C145.71 170.11 150.65 178.65 168 178.65C185.35 178.65 190.29 170.12 194.46 166.93C179.26 166.16 172.25 168.64 168 168.64Z" fill="white"/>
</g>
</svg>
