<?xml version="1.0"?>
<svg xmlns="http://www.w3.org/2000/svg" width="336" height="354" viewBox="0 0 336 354" fill="none">
<path d="M168 353.95C260.784 353.95 336 278.734 336 185.95C336 93.1664 260.784 17.9502 168 17.9502C75.2162 17.9502 0 93.1664 0 185.95C0 278.734 75.2162 353.95 168 353.95Z" fill="#E6EFF9"/>
<mask id="mask0" mask-type="alpha" maskUnits="userSpaceOnUse" x="0" y="0" width="336" height="354">
<path d="M168 353.95C260.784 353.95 336 278.734 336 185.95C336 93.1664 260.784 0 168 0C75.2162 0 0 93.1664 0 185.95C0 278.734 75.2162 353.95 168 353.95Z" fill="#E6EFF9"/>
</mask>
<g mask="url(#mask0)">
<path d="M230.76 113.46H105.24V226.07H230.76V113.46Z" fill="#2F1A12"/>
<path d="M264.35 253.62C243.34 233.53 207.62 223.58 168 223.58C128.39 223.58 92.6702 233.53 71.6502 253.62C54.0902 270.4 53.6602 295.09 53.6602 319.11L168 372.08L282.33 319.11C282.33 295.09 281.91 270.4 264.35 253.62Z" fill="#177873"/>
<path d="M222.67 230.92C216.35 229.03 209.65 227.57 203.19 226.45C203.26 225.72 203.29 224.99 203.29 224.29V188.94H132.69V224.29C132.69 225 132.73 225.72 132.79 226.45C126.33 227.57 119.64 229.02 113.31 230.92C113.31 230.92 99.6599 328.41 167.98 328.41C236.33 328.41 222.67 230.92 222.67 230.92Z" fill="#E7A077"/>
<path d="M168 192.06L132.7 189.03C132.7 189.03 141.39 218.25 168 218.25C194.61 218.25 203.3 189.03 203.3 189.03L168 192.06Z" fill="#CE7F63"/>
<path d="M168 6.41992C129.01 6.41992 107.45 36.8499 107.45 79.0599L109.86 131.5C109.86 176.97 142.81 206.99 168 206.99C193.18 206.99 226.14 176.97 226.14 131.5L228.55 79.0599C228.55 36.8499 206.99 6.41992 168 6.41992Z" fill="#E7A077"/>
<path d="M127.35 141.48C132.834 141.48 137.28 137.034 137.28 131.55C137.28 126.066 132.834 121.62 127.35 121.62C121.866 121.62 117.42 126.066 117.42 131.55C117.42 137.034 121.866 141.48 127.35 141.48Z" fill="#F1B08F"/>
<path d="M168 156.64C162.06 156.17 150.01 158.42 138.24 159.02C144.2 159.02 147.34 179.28 168 179.28C188.66 179.28 191.8 159.02 197.76 159.02C185.99 158.42 173.94 156.17 168 156.64Z" fill="#D17866"/>
<path d="M208.65 141.48C214.134 141.48 218.58 137.034 218.58 131.55C218.58 126.066 214.134 121.62 208.65 121.62C203.166 121.62 198.72 126.066 198.72 131.55C198.72 137.034 203.166 141.48 208.65 141.48Z" fill="#F1B08F"/>
<path d="M140.36 113.29C143.337 113.29 145.75 110.877 145.75 107.9C145.75 104.923 143.337 102.51 140.36 102.51C137.383 102.51 134.97 104.923 134.97 107.9C134.97 110.877 137.383 113.29 140.36 113.29Z" fill="#2F1A12"/>
<path d="M151.411 109.19C151.411 109.19 142.961 113.23 128.271 109.46C128.271 109.47 140.161 119.92 151.411 109.19Z" fill="#E7A077"/>
<path d="M152.67 106.681C152.67 106.681 148 101.841 140.26 102.211C132.97 102.561 129.22 107.601 122.66 107.501C122.66 107.501 126.15 109.041 137.26 105.571C145.05 103.141 152.67 106.681 152.67 106.681Z" fill="#2F1A12"/>
<path d="M195.64 113.29C198.617 113.29 201.03 110.877 201.03 107.9C201.03 104.923 198.617 102.51 195.64 102.51C192.663 102.51 190.25 104.923 190.25 107.9C190.25 110.877 192.663 113.29 195.64 113.29Z" fill="#2F1A12"/>
<path d="M184.59 109.19C184.59 109.19 193.04 113.23 207.73 109.46C207.73 109.47 195.84 119.92 184.59 109.19Z" fill="#E7A077"/>
<path d="M183.33 106.681C183.33 106.681 188 101.841 195.74 102.211C203.03 102.561 206.78 107.601 213.34 107.501C213.34 107.501 209.85 109.041 198.74 105.571C190.95 103.141 183.33 106.681 183.33 106.681Z" fill="#2F1A12"/>
<path d="M157.711 96.54C158.201 96.7 158.731 96.39 158.811 95.88C159.031 94.41 158.881 91.59 154.981 90C149.551 87.79 137.141 83.79 128.231 88.07C120.761 91.66 116.291 96.28 117.341 98.54C117.341 98.54 125.301 91.25 133.301 91.25C143.011 91.25 149.771 93.9 157.711 96.54Z" fill="#2F1A12"/>
<path d="M178.29 96.54C177.8 96.7 177.27 96.39 177.19 95.88C176.97 94.41 177.12 91.59 181.02 90C186.45 87.79 198.86 83.79 207.77 88.07C215.24 91.66 219.71 96.28 218.66 98.54C218.66 98.54 210.7 91.25 202.7 91.25C192.99 91.25 186.23 93.9 178.29 96.54Z" fill="#2F1A12"/>
<path d="M245.03 173.85C248.6 132.19 249.07 106.14 240.83 74.7702C236.38 57.8302 229.24 37.1402 220.01 24.4502C196.06 -8.47985 168 3.35015 168 3.35015C168 3.35015 139.94 -8.46985 115.99 24.4602C106.75 37.1602 99.6099 57.8402 95.1699 74.7802C86.9399 106.15 87.3999 132.2 90.9699 173.86C96.7799 241.66 58.0399 258.53 89.3099 335.63L125.56 352.43C125.84 318.58 136.32 285.97 136.32 245.03C136.32 193.08 117.87 184.61 111.06 150.38C105.74 123.66 113 107.45 116.45 80.7202C123.74 24.2702 162.36 31.2402 168 31.4002C173.64 31.2402 212.26 24.2702 219.55 80.7202C223 107.45 230.26 123.66 224.94 150.38C218.13 184.61 199.68 193.08 199.68 245.03C199.68 285.97 210.16 318.58 210.44 352.43L246.69 335.63C277.96 258.52 239.22 241.65 245.03 173.85Z" fill="#2F1A12"/>
<path d="M173.32 127.01C171.85 120.88 172.35 103.23 168 103.23C163.65 103.23 164.14 120.88 162.68 127.01C161.21 133.14 156.29 137.34 156.64 140.62C156.99 143.9 158.93 144.21 161.21 144.5C163.72 144.83 165.81 146.8 168 146.8C170.19 146.8 172.28 144.82 174.79 144.5C177.07 144.2 179.02 143.9 179.36 140.62C179.71 137.34 174.79 133.14 173.32 127.01Z" fill="#D88A6A"/>
<path d="M168 161.12C161.23 161.12 155.18 160.3 142.7 160.63C147.84 163.27 150.57 173.49 168 173.49C185.43 173.49 188.15 163.27 193.3 160.63C180.82 160.31 174.77 161.12 168 161.12Z" fill="white"/>
</g>
</svg>
