<?xml version="1.0"?>
<svg xmlns="http://www.w3.org/2000/svg" width="336" height="371" viewBox="0 0 336 371" fill="none">
<path d="M168 371C260.784 371 336 295.779 336 202.99C336 110.2 260.784 34.979 168 34.979C75.2162 34.979 0 110.2 0 202.99C0 295.779 75.2162 371 168 371Z" fill="#E6EFF9"/>
<path d="M168 254.9C111.255 254.9 63.0694 281.878 46.6973 319.276C77.2089 351.092 120.372 371 168 371C215.628 371 258.604 351.092 289.302 319.276C272.93 282.064 224.93 254.9 168 254.9Z" fill="#4F00FF"/>
<path d="M99.349 170.615C107.055 170.615 113.302 159.036 113.302 144.753C113.302 130.47 107.055 118.891 99.349 118.891C91.6427 118.891 85.3955 130.47 85.3955 144.753C85.3955 159.036 91.6427 170.615 99.349 170.615Z" fill="#E18C64"/>
<path d="M236.652 170.615C244.358 170.615 250.605 159.036 250.605 144.753C250.605 130.47 244.358 118.891 236.652 118.891C228.945 118.891 222.698 130.47 222.698 144.753C222.698 159.036 228.945 170.615 236.652 170.615Z" fill="#E18C64"/>
<path d="M168 308.484C142.512 308.484 121.675 287.832 121.675 262.156V219.176H214.326V262.156C214.326 287.832 193.675 308.484 168 308.484Z" fill="#E18C64"/>
<path d="M168 261.97C142.512 261.97 121.675 241.317 121.675 215.641V205.408H214.326V215.641C214.326 241.317 193.675 261.97 168 261.97Z" fill="#BE6C50"/>
<path d="M167.999 247.085C128.93 247.085 97.3018 215.455 97.3018 176.383V97.6806C97.3018 58.6084 128.93 26.9785 167.999 26.9785C207.069 26.9785 238.697 58.6084 238.697 97.6806V176.383C238.697 215.455 207.069 247.085 167.999 247.085Z" fill="#E18C64"/>
<path d="M136.186 134.892C139.577 134.892 142.326 132.143 142.326 128.752C142.326 125.361 139.577 122.612 136.186 122.612C132.796 122.612 130.047 125.361 130.047 128.752C130.047 132.143 132.796 134.892 136.186 134.892Z" fill="#2F373F"/>
<path d="M204.465 197.966C204.465 197.966 236.651 202.99 238.698 136.939V176.383C238.698 215.456 207.07 247.085 168 247.085V178.616C178.977 178.616 209.116 183.267 204.465 197.966Z" fill="#BD8160"/>
<path d="M131.721 197.966C131.721 197.966 99.5348 202.99 97.4883 136.939V176.383C97.4883 215.456 129.116 247.085 168.186 247.085V178.616C157.023 178.616 126.884 183.267 131.721 197.966Z" fill="#BD8160"/>
<path d="M199.814 134.892C203.205 134.892 205.954 132.143 205.954 128.752C205.954 125.361 203.205 122.612 199.814 122.612C196.424 122.612 193.675 125.361 193.675 128.752C193.675 132.143 196.424 134.892 199.814 134.892Z" fill="#2F373F"/>
<path d="M168 65.1204C168 65.1204 129.116 53.957 113.861 69.5858C108.837 74.7955 107.907 84.8426 107.907 96.9364C103.07 110.891 97.4885 132.287 97.4885 132.287L93.7676 50.6079H168.186V65.1204H168Z" fill="#2F373F"/>
<path d="M168.001 65.1204C168.001 65.1204 206.884 53.957 222.14 69.5858C227.163 74.7955 228.094 84.8426 228.094 96.9364C232.931 110.891 238.512 132.287 238.512 132.287L242.233 50.6079H167.814V65.1204H168.001Z" fill="#2F373F"/>
<path d="M218.977 25.3039C218.418 21.7688 207.07 4.4654 171.535 3.16299C164.279 2.79087 119.628 1.48847 114.977 0C114.977 0 114.232 6.32598 118.139 9.67503C118.139 9.67503 104.372 17.1174 95.8137 16.1871C95.8137 16.1871 95.0695 25.3039 97.1161 32.5602C87.2556 52.0963 83.7207 89.494 97.4881 132.101L97.3021 67.5391L135.07 53.5848L193.674 55.8175H218.977L236.093 74.4233L238.697 132.101C238.697 132.101 254.697 83.3541 245.953 55.8175C237.209 28.839 218.977 25.3039 218.977 25.3039Z" fill="#2F373F"/>
<path d="M156.837 118.147C156.837 118.147 131.535 112.007 120.744 114.426C114.419 115.914 109.768 118.891 109.768 118.891C109.768 118.891 108.465 115.542 110.14 113.496C111.814 111.449 118.512 106.053 124.651 104.007C128.93 102.704 149.024 101.216 155.907 107.728C158.14 109.774 157.954 114.426 156.837 118.147Z" fill="#2F373F"/>
<path d="M179.163 118.147C179.163 118.147 204.465 112.007 215.256 114.426C221.582 115.914 226.233 118.891 226.233 118.891C226.233 118.891 227.535 115.542 225.861 113.496C224.186 111.449 217.489 106.053 211.349 104.007C207.07 102.704 186.977 101.216 180.093 107.728C178.047 109.774 178.047 114.426 179.163 118.147Z" fill="#2F373F"/>
<path d="M158.139 191.268C162.418 191.268 168 191.64 168 191.64V217.13C148.651 217.13 140.465 195.175 133.581 194.431C144.372 194.058 153.86 191.268 158.139 191.268Z" fill="#DD7F5F"/>
<path d="M168.372 178.616C165.023 178.616 162.046 175.639 159.814 174.895C157.395 174.151 153.116 173.779 153.86 167.639C154.79 161.499 158.511 161.127 158.511 156.475C158.511 151.638 161.86 124.659 168.558 124.659V178.616H168.372Z" fill="#CB7A60"/>
<path d="M168.372 178.616C171.72 178.616 174.697 175.639 176.93 174.895C179.348 174.151 183.627 173.779 182.883 167.639C182.139 161.499 178.232 161.127 178.232 156.475C178.232 151.638 174.883 124.659 168.186 124.659V178.616H168.372Z" fill="#CB7A60"/>
<path d="M168 211.921C151.442 211.921 141.209 195.733 137.488 195.733C137.488 195.733 149.767 195.175 157.209 194.803C162.791 194.617 163.907 195.733 167.814 195.733L168 211.921Z" fill="white"/>
<path d="M177.86 191.268C173.581 191.268 168 191.64 168 191.64V217.13C187.349 217.13 195.535 195.175 202.419 194.431C191.814 194.058 182.14 191.268 177.86 191.268Z" fill="#DD7F5F"/>
<path d="M168 211.921C184.558 211.921 194.791 195.733 198.512 195.733C198.512 195.733 186.233 195.175 178.791 194.803C173.209 194.617 172.093 195.733 168.186 195.733L168 211.921Z" fill="white"/>
<path d="M193.674 195.547C193.674 200.571 176.372 203.362 168 203.362C159.628 203.362 142.325 200.385 142.325 195.547C139.535 195.733 137.488 195.733 137.488 195.733C141.209 195.733 151.442 211.921 168 211.921C184.558 211.921 194.791 195.733 198.512 195.733C198.512 195.733 196.465 195.547 193.674 195.547Z" fill="#B55C43"/>
<path d="M173.953 123.729C172.279 133.962 176 144.567 181.023 149.963C189.767 159.266 217.116 157.591 223.628 151.823C229.767 146.428 231.256 131.729 231.256 131.729" stroke="black" stroke-width="0.9765" stroke-miterlimit="10"/>
<path d="M194.977 110.704C178.418 111.449 172.279 120.007 172.279 120.007C171.907 121.124 171.535 122.24 171.349 123.542L174.697 124.101C175.442 120.938 181.209 114.24 196.093 113.867C210.79 113.495 224.93 115.728 229.395 122.054C230.511 123.542 230.511 128.008 230.139 132.101C230.139 132.101 234.79 133.217 235.721 128.752C236.837 123.542 239.256 121.868 240.372 121.31C240.744 121.124 240.93 120.752 240.93 120.379V115.17C240.93 114.612 240.558 114.24 240 114.053C230.511 113.867 210.977 110.146 194.977 110.704Z" fill="black"/>
<path d="M104.744 131.543C104.744 131.543 106.233 146.242 112.372 151.637C118.884 157.405 146.419 159.08 154.977 149.777C160 144.567 163.721 133.962 162.046 123.542" stroke="black" stroke-width="0.9765" stroke-miterlimit="10"/>
<path d="M141.209 110.705C157.768 111.449 163.907 120.007 163.907 120.007C164.279 121.124 164.651 122.24 164.837 123.543L161.488 124.101C160.744 120.938 154.977 114.24 140.093 113.868C125.395 113.495 111.256 115.728 106.791 122.054C105.674 123.543 105.674 128.008 106.047 132.101C106.047 132.101 101.395 133.218 100.465 128.752C99.3489 123.543 96.9303 121.868 95.814 121.31C95.0698 120.938 94.8838 120.566 94.8838 120.193V114.984C94.8838 114.426 95.2559 114.054 95.814 113.868C105.488 113.868 125.023 110.146 141.209 110.705Z" fill="black"/>
<path d="M168 125.775C163.721 125.775 163.349 130.799 163.349 130.799L162.604 124.473L163.349 119.449C164.465 120.566 165.395 119.449 168 119.449V125.775Z" fill="black"/>
<path d="M168 125.775C172.279 125.775 172.651 130.799 172.651 130.799L173.395 124.473L172.651 119.449C171.535 120.566 170.605 119.449 168 119.449V125.775Z" fill="black"/>
<path d="M238.325 117.589H235.535C235.163 117.589 234.977 117.217 234.977 117.031C234.977 116.659 235.349 116.473 235.535 116.473H238.325C238.698 116.473 238.884 116.845 238.884 117.031C239.07 117.217 238.698 117.589 238.325 117.589Z" fill="#A0A0A0"/>
<path d="M97.6744 117.589H100.465C100.837 117.589 101.023 117.217 101.023 117.031C101.023 116.659 100.651 116.473 100.465 116.473H97.6744C97.3023 116.473 97.1162 116.845 97.1162 117.031C97.1162 117.217 97.3023 117.589 97.6744 117.589Z" fill="#A0A0A0"/>
<path d="M145.86 131.915C145.86 131.915 136.558 129.31 127.628 132.473C127.628 132.473 133.767 139.358 145.86 131.915Z" fill="#E18C64"/>
<path d="M191.07 131.915C191.07 131.915 200.373 129.31 209.303 132.473C209.303 132.473 203.163 139.358 191.07 131.915Z" fill="#E18C64"/>
<path d="M189.209 126.52C189.209 126.52 198.511 116.1 215.069 127.636C214.883 127.636 198.697 123.357 189.209 126.52Z" fill="#2F373F"/>
<path d="M147.721 126.52C147.721 126.52 138.418 116.1 121.86 127.636C121.86 127.636 138.232 123.357 147.721 126.52Z" fill="#2F373F"/>
</svg>
